# xmcd
# Track frame offsets:
# 150
# 6840
# 13052
# 19067
# 29055
# 38587
# 50665
# 62102
# 72105
# 83455
# 97270
# 103957
# 113347
# 122887
# 132972
# 143135
# 154672
# 168682
#
# Disc length: 2465 seconds
# Revision: 0
# Processed by: cddbd v1.5PL3 Copyright (c) Steve Scherf et al.
# Submitted via: VisiTrax 2.9.5.181 - For more info visit www.synapsa.com
#
DISCID=f4099f12
DTITLE=Willie Nelson - It's Been Rough and Rocky Travelin': The Earliest WIll
DTITLE=ie Nelson 1954 - 1963  (1 of 3)
DYEAR=2003
DGENRE=Country - Compilation
TTITLE0=When I've Sang My Last Hillbilly Song
TTITLE1=The Storm Has Just Begun
TTITLE2=No Place for Me
TTITLE3=Lumberjack
TTITLE4=Man With the Blues
TTITLE5=The Storm Has Just Begun
TTITLE6=What a Way to Live
TTITLE7=Misery Mansion
TTITLE8=Nite Life
TTITLE9=Rainy Day Blues
TTITLE10=No Place for Me [Alternate #1]
TTITLE11=No Place for Me [Alternate #2]
TTITLE12=No Place for Me [Alt 3]
TTITLE13=Lumberjack [Alternate #1]
TTITLE14=Lumberjack [Alternate #2]
TTITLE15=Nite Life [Alternate Take]
TTITLE16=Rainy Day Blues [Alternate Take]
TTITLE17=Attention Songwriters [Promotional Announcement]
EXTD=JEK  Bear Family Records BCD 16664 c. 2003
EXTT0=
EXTT1=
EXTT2=
EXTT3=
EXTT4=
EXTT5=
EXTT6=
EXTT7=
EXTT8=
EXTT9=
EXTT10=
EXTT11=
EXTT12=
EXTT13=
EXTT14=
EXTT15=
EXTT16=
EXTT17=
PLAYORDER=
